<svg width="39" height="40" viewBox="0 0 39 40" fill="none" xmlns="http://www.w3.org/2000/svg">
<path d="M19.4999 0.681763C21.2733 0.681763 22.9838 0.913813 24.6313 1.37791C26.2789 1.84201 27.8133 2.51238 29.2345 3.38902C30.6557 4.26565 31.9574 5.29698 33.1396 6.48302C34.3219 7.66905 35.3343 9.00334 36.177 10.4859C37.0196 11.9684 37.6673 13.5477 38.1201 15.2236C38.5729 16.8995 38.8055 18.6528 38.8181 20.4834C38.8181 22.6105 38.5037 24.6603 37.8749 26.6327C37.246 28.6051 36.3468 30.4164 35.1771 32.0666C34.0074 33.7167 32.6177 35.1606 31.0078 36.3982C29.398 37.6358 27.5995 38.5962 25.6123 39.2794C25.5746 39.2923 25.518 39.2988 25.4425 39.2988C25.3671 39.2988 25.3105 39.3052 25.2728 39.3181C24.9709 39.3181 24.732 39.2279 24.5559 39.0474C24.3798 38.8669 24.2918 38.6284 24.2918 38.3319V35.6247C24.2918 34.7351 24.298 33.8263 24.3106 32.8981C24.3106 32.2406 24.2163 31.5767 24.0276 30.9063C23.839 30.2359 23.4994 29.6751 23.0089 29.2239C24.4678 29.0563 25.7444 28.7534 26.8386 28.3151C27.9328 27.8768 28.8509 27.258 29.5929 26.4587C30.335 25.6594 30.8884 24.6925 31.2531 23.558C31.6178 22.4236 31.8065 21.0571 31.8191 19.4585C31.8191 18.4529 31.6556 17.5054 31.3286 16.6159C31.0016 15.7264 30.5048 14.9013 29.8382 14.1407C29.9765 13.7797 30.0772 13.4058 30.14 13.0191C30.2029 12.6323 30.2344 12.2456 30.2344 11.8588C30.2344 11.3561 30.1841 10.8597 30.0834 10.3699C29.9828 9.87998 29.8382 9.39009 29.6495 8.90021C29.5866 8.87442 29.5175 8.86153 29.442 8.86153C29.3666 8.86153 29.2974 8.86153 29.2345 8.86153C28.832 8.86153 28.4107 8.92599 27.9705 9.05491C27.5303 9.18382 27.0964 9.35142 26.6688 9.55768C26.2412 9.76395 25.8199 9.98955 25.4048 10.2345C24.9898 10.4794 24.6313 10.7115 24.3295 10.9306C22.7574 10.4794 21.1475 10.2538 19.4999 10.2538C17.8524 10.2538 16.2425 10.4794 14.6704 10.9306C14.356 10.7115 13.9975 10.4794 13.5951 10.2345C13.1926 9.98955 12.7776 9.7704 12.35 9.57702C11.9223 9.38365 11.4821 9.21605 11.0294 9.07425C10.5766 8.93244 10.1553 8.86153 9.76539 8.86153H9.55787C9.48241 8.86153 9.41324 8.87442 9.35035 8.90021C9.17427 9.3772 9.03593 9.86064 8.93531 10.3505C8.8347 10.8404 8.7781 11.3432 8.76552 11.8588C8.76552 12.2456 8.79697 12.6323 8.85985 13.0191C8.92274 13.4058 9.02335 13.7797 9.1617 14.1407C8.49512 14.8884 7.99833 15.707 7.67133 16.5965C7.34433 17.4861 7.18083 18.4401 7.18083 19.4585C7.18083 21.0313 7.3632 22.3913 7.72793 23.5387C8.09266 24.6861 8.64604 25.6529 9.38808 26.4393C10.1301 27.2257 11.0482 27.851 12.1424 28.3151C13.2366 28.7792 14.5132 29.0886 15.9721 29.2433C15.6074 29.5785 15.3307 29.9781 15.142 30.4422C14.9534 30.9063 14.8213 31.3897 14.7459 31.8925C14.4063 32.0601 14.0478 32.189 13.6705 32.2793C13.2932 32.3695 12.9159 32.4146 12.5386 32.4146C11.7337 32.4146 11.0671 32.2213 10.5389 31.8345C10.0106 31.4478 9.53901 30.9192 9.12397 30.2488C8.97304 30.0039 8.79068 29.7589 8.57687 29.514C8.36306 29.2691 8.13039 29.0499 7.87885 28.8565C7.62731 28.6632 7.35691 28.5085 7.06764 28.3924C6.77837 28.2764 6.47652 28.2119 6.1621 28.1991H5.93571C5.8351 28.1991 5.74077 28.2184 5.65273 28.2571C5.56469 28.2957 5.47665 28.3344 5.38862 28.3731C5.30058 28.4118 5.26285 28.4762 5.27542 28.5665C5.27542 28.7212 5.36346 28.8694 5.53954 29.0112C5.71562 29.153 5.86025 29.2691 5.97344 29.3593L6.03004 29.398C6.30673 29.6171 6.54569 29.8234 6.74693 30.0168C6.94816 30.2102 7.13681 30.4229 7.31289 30.6549C7.48897 30.887 7.6336 31.1319 7.74679 31.3897C7.85998 31.6476 8.00462 31.9505 8.1807 32.2986C8.60831 33.3042 9.20572 34.0325 9.97291 34.4837C10.7401 34.935 11.6645 35.167 12.7461 35.1799C13.0731 35.1799 13.4001 35.1606 13.7271 35.1219C14.0541 35.0832 14.3811 35.0252 14.7081 34.9478V38.3126C14.7081 38.622 14.6201 38.8669 14.444 39.0474C14.2679 39.2279 14.0227 39.3181 13.7083 39.3181H13.5573C13.4945 39.3181 13.4379 39.3052 13.3875 39.2794C11.413 38.622 9.61447 37.6744 7.99204 36.4368C6.36962 35.1992 4.97987 33.7489 3.82279 32.0859C2.66571 30.4229 1.77275 28.6051 1.1439 26.6327C0.515052 24.6603 0.19434 22.6105 0.181763 20.4834C0.181763 18.6657 0.408148 16.9124 0.860917 15.2236C1.31369 13.5348 1.96769 11.962 2.82292 10.5052C3.67815 9.04846 4.68431 7.71417 5.84139 6.50236C6.99846 5.29054 8.30018 4.25276 9.74653 3.38902C11.1929 2.52527 12.7335 1.86135 14.3686 1.39725C16.0036 0.93315 17.714 0.694654 19.4999 0.681763Z" fill="#F2F2F2"/>
</svg>
